<svg width="152" height="46" viewBox="0 0 152 46" fill="none" xmlns="http://www.w3.org/2000/svg">
<g clip-path="url(#clip0_552_4810)">
<g filter="url(#filter0_d_552_4810)">
<rect x="0.849976" y="0.27002" width="150.3" height="45" rx="22.5" fill="white"/>
</g>
<path fill-rule="evenodd" clip-rule="evenodd" d="M74.839 16.47H73.993V9.95398H74.839V16.47ZM50.26 16.47H52.474C53.332 16.47 54.055 16.1895 54.643 15.6285C55.231 15.0675 55.525 14.289 55.525 13.293C55.525 12.291 55.234 11.5065 54.652 10.9395C54.07 10.3725 53.35 10.089 52.492 10.089H50.26V16.47ZM52.447 15.687H51.142V10.872H52.465C53.089 10.872 53.6035 11.082 54.0085 11.502C54.4135 11.922 54.616 12.519 54.616 13.293C54.616 14.061 54.4105 14.652 53.9995 15.066C53.5885 15.48 53.071 15.687 52.447 15.687ZM57.541 15.444C57.805 15.714 58.126 15.849 58.504 15.849C58.882 15.849 59.2015 15.7125 59.4625 15.4395C59.7235 15.1665 59.854 14.787 59.854 14.301C59.854 13.821 59.7235 13.4445 59.4625 13.1715C59.2015 12.8985 58.882 12.762 58.504 12.762C58.126 12.762 57.8065 12.8985 57.5455 13.1715C57.2845 13.4445 57.154 13.821 57.154 14.301C57.154 14.787 57.283 15.168 57.541 15.444ZM58.504 12.006C57.862 12.006 57.331 12.225 56.911 12.663C56.497 13.095 56.29 13.641 56.29 14.301C56.29 14.967 56.497 15.5175 56.911 15.9525C57.325 16.3875 57.856 16.605 58.504 16.605C59.152 16.605 59.683 16.3875 60.097 15.9525C60.511 15.5175 60.718 14.967 60.718 14.301C60.718 13.641 60.5095 13.0935 60.0925 12.6585C59.6755 12.2235 59.146 12.006 58.504 12.006ZM64.237 12.141H65.11L66.235 15.399L67.189 12.141H68.08L66.676 16.47H65.803L64.651 13.176L63.526 16.47H62.635L61.213 12.141H62.14L63.112 15.399L64.237 12.141ZM69.781 16.47V13.968C69.781 13.626 69.8695 13.3425 70.0465 13.1175C70.2235 12.8925 70.471 12.78 70.789 12.78C71.461 12.78 71.797 13.143 71.797 13.869V16.47H72.643V13.725C72.643 13.221 72.5095 12.81 72.2425 12.492C71.9755 12.174 71.593 12.015 71.095 12.015C70.495 12.015 70.051 12.264 69.763 12.762V12.141H68.935V16.47H69.781ZM78.133 15.849C77.755 15.849 77.434 15.714 77.17 15.444C76.912 15.168 76.783 14.787 76.783 14.301C76.783 13.821 76.9135 13.4445 77.1745 13.1715C77.4355 12.8985 77.755 12.762 78.133 12.762C78.511 12.762 78.8305 12.8985 79.0915 13.1715C79.3525 13.4445 79.483 13.821 79.483 14.301C79.483 14.787 79.3525 15.1665 79.0915 15.4395C78.8305 15.7125 78.511 15.849 78.133 15.849ZM76.54 12.663C76.96 12.225 77.491 12.006 78.133 12.006C78.775 12.006 79.3045 12.2235 79.7215 12.6585C80.1385 13.0935 80.347 13.641 80.347 14.301C80.347 14.967 80.14 15.5175 79.726 15.9525C79.312 16.3875 78.781 16.605 78.133 16.605C77.485 16.605 76.954 16.3875 76.54 15.9525C76.126 15.5175 75.919 14.967 75.919 14.301C75.919 13.641 76.126 13.095 76.54 12.663ZM81.517 14.4135C81.277 14.6385 81.157 14.937 81.157 15.309C81.157 15.663 81.292 15.9675 81.562 16.2225C81.832 16.4775 82.18 16.605 82.606 16.605C82.954 16.605 83.2435 16.533 83.4745 16.389C83.7055 16.245 83.881 16.077 84.001 15.885C84.001 16.095 84.016 16.29 84.046 16.47H84.874C84.838 16.254 84.82 16.017 84.82 15.759V13.59C84.82 13.128 84.673 12.7485 84.379 12.4515C84.085 12.1545 83.632 12.006 83.02 12.006C82.552 12.006 82.15 12.1365 81.814 12.3975C81.478 12.6585 81.289 12.996 81.247 13.41L82.057 13.599C82.087 13.335 82.186 13.1235 82.354 12.9645C82.522 12.8055 82.75 12.726 83.038 12.726C83.35 12.726 83.584 12.798 83.74 12.942C83.896 13.086 83.974 13.272 83.974 13.5C83.974 13.686 83.863 13.794 83.641 13.824L82.471 13.995C82.075 14.049 81.757 14.1885 81.517 14.4135ZM82.723 15.894C83.101 15.894 83.404 15.792 83.632 15.588C83.86 15.384 83.974 15.06 83.974 14.616V14.418L82.651 14.616C82.459 14.646 82.306 14.715 82.192 14.823C82.078 14.931 82.021 15.078 82.021 15.264C82.021 15.432 82.0855 15.579 82.2145 15.705C82.3435 15.831 82.513 15.894 82.723 15.894ZM86.9755 15.408C86.7505 15.12 86.638 14.748 86.638 14.292C86.638 13.842 86.755 13.476 86.989 13.194C87.223 12.912 87.532 12.771 87.916 12.771C88.3 12.771 88.603 12.909 88.825 13.185C89.047 13.461 89.158 13.824 89.158 14.274C89.158 14.73 89.044 15.105 88.816 15.399C88.588 15.693 88.285 15.84 87.907 15.84C87.511 15.84 87.2005 15.696 86.9755 15.408ZM89.1698 16.0464L89.167 15.813C89.053 16.035 88.8805 16.2195 88.6495 16.3665C88.4185 16.5135 88.144 16.587 87.826 16.587C87.208 16.587 86.7115 16.3695 86.3365 15.9345C85.9615 15.4995 85.774 14.952 85.774 14.292C85.774 13.662 85.966 13.1265 86.35 12.6855C86.734 12.2445 87.226 12.024 87.826 12.024C88.18 12.024 88.468 12.0945 88.69 12.2355C88.912 12.3765 89.065 12.549 89.149 12.753V9.95398H89.986V15.669C89.986 15.963 90.001 16.23 90.031 16.47H89.212C89.1895 16.344 89.1754 16.2028 89.1698 16.0464ZM95.53 15.849C95.152 15.849 94.831 15.714 94.567 15.444C94.309 15.168 94.18 14.787 94.18 14.301C94.18 13.821 94.3105 13.4445 94.5715 13.1715C94.8325 12.8985 95.152 12.762 95.53 12.762C95.908 12.762 96.2275 12.8985 96.4885 13.1715C96.7495 13.4445 96.88 13.821 96.88 14.301C96.88 14.787 96.7495 15.1665 96.4885 15.4395C96.2275 15.7125 95.908 15.849 95.53 15.849ZM93.937 12.663C94.357 12.225 94.888 12.006 95.53 12.006C96.172 12.006 96.7015 12.2235 97.1185 12.6585C97.5355 13.0935 97.744 13.641 97.744 14.301C97.744 14.967 97.537 15.5175 97.123 15.9525C96.709 16.3875 96.178 16.605 95.53 16.605C94.882 16.605 94.351 16.3875 93.937 15.9525C93.523 15.5175 93.316 14.967 93.316 14.301C93.316 13.641 93.523 13.095 93.937 12.663ZM99.67 16.47V13.968C99.67 13.626 99.7585 13.3425 99.9355 13.1175C100.113 12.8925 100.36 12.78 100.678 12.78C101.35 12.78 101.686 13.143 101.686 13.869V16.47H102.532V13.725C102.532 13.221 102.399 12.81 102.132 12.492C101.865 12.174 101.482 12.015 100.984 12.015C100.384 12.015 99.94 12.264 99.652 12.762V12.141H98.824V16.47H99.67ZM107.266 10.773V12.141H108.202V12.906H107.266V15.156C107.266 15.36 107.313 15.51 107.406 15.606C107.499 15.702 107.653 15.75 107.869 15.75C107.995 15.75 108.106 15.738 108.202 15.714V16.434C108.058 16.488 107.866 16.515 107.626 16.515C107.254 16.515 106.96 16.407 106.744 16.191C106.528 15.975 106.42 15.672 106.42 15.282V12.906H105.592V12.141H105.826C106.048 12.141 106.215 12.0795 106.326 11.9565C106.437 11.8335 106.492 11.673 106.492 11.475V10.773H107.266ZM110.173 16.47V13.923C110.185 13.587 110.278 13.3125 110.452 13.0995C110.626 12.8865 110.869 12.78 111.181 12.78C111.853 12.78 112.189 13.143 112.189 13.869V16.47H113.035V13.725C113.035 13.221 112.902 12.81 112.635 12.492C112.368 12.174 111.985 12.015 111.487 12.015C110.899 12.015 110.461 12.225 110.173 12.645V9.95398H109.327V16.47H110.173ZM114.934 13.86H117.301C117.289 13.536 117.181 13.2705 116.977 13.0635C116.773 12.8565 116.485 12.753 116.113 12.753C115.777 12.753 115.501 12.8625 115.285 13.0815C115.069 13.3005 114.952 13.56 114.934 13.86ZM118.156 15.237L117.427 14.985C117.235 15.567 116.83 15.858 116.212 15.858C115.846 15.858 115.539 15.735 115.29 15.489C115.041 15.243 114.913 14.928 114.907 14.544H118.165C118.177 14.472 118.183 14.382 118.183 14.274C118.183 13.584 118 13.0335 117.634 12.6225C117.268 12.2115 116.758 12.006 116.104 12.006C115.54 12.006 115.054 12.222 114.646 12.654C114.238 13.086 114.034 13.632 114.034 14.292C114.034 15 114.246 15.5625 114.669 15.9795C115.092 16.3965 115.606 16.605 116.212 16.605C116.698 16.605 117.112 16.4775 117.454 16.2225C117.796 15.9675 118.03 15.639 118.156 15.237Z" fill="black"/>
<path fill-rule="evenodd" clip-rule="evenodd" d="M57.658 33.57H59.5444L55.57 23.3604H53.5684L49.594 33.57H51.4228L52.3732 31.0068H56.6932L57.658 33.57ZM54.5332 25.2324L56.0884 29.4084H52.978L54.5332 25.2324ZM62.4244 36.306V32.778C62.7844 33.3108 63.5476 33.7428 64.5556 33.7428C66.5716 33.7428 67.8532 32.1588 67.8532 30.0564C67.8532 27.9828 66.6868 26.3988 64.6132 26.3988C63.5332 26.3988 62.7268 26.9028 62.3812 27.5076V26.5572H60.7684V36.306H62.4244ZM66.1828 30.0564C66.1828 31.3956 65.4052 32.2596 64.2964 32.2596C63.202 32.2596 62.41 31.3956 62.41 30.0564C62.41 28.746 63.202 27.882 64.2964 27.882C65.4196 27.882 66.1828 28.746 66.1828 30.0564ZM71.122 36.306V32.778C71.482 33.3108 72.2452 33.7428 73.2532 33.7428C75.2692 33.7428 76.5508 32.1588 76.5508 30.0564C76.5508 27.9828 75.3844 26.3988 73.3108 26.3988C72.2308 26.3988 71.4244 26.9028 71.0788 27.5076V26.5572H69.466V36.306H71.122ZM74.8804 30.0564C74.8804 31.3956 74.1028 32.2596 72.994 32.2596C71.8996 32.2596 71.1076 31.3956 71.1076 30.0564C71.1076 28.746 71.8996 27.882 72.994 27.882C74.1172 27.882 74.8804 28.746 74.8804 30.0564ZM88.5892 25.7508C88.3588 24.6132 87.4228 23.1444 85.018 23.1444C83.1172 23.1444 81.5476 24.5556 81.5476 26.2692C81.5476 27.7956 82.5844 28.818 84.1396 29.1348L85.5796 29.4372C86.458 29.6244 86.9476 30.1572 86.9476 30.8196C86.9476 31.6116 86.314 32.2308 85.09 32.2308C83.6212 32.2308 82.858 31.2516 82.7572 30.186L81.1444 30.6468C81.3028 32.1156 82.498 33.786 85.09 33.786C87.4228 33.786 88.7044 32.274 88.7044 30.69C88.7044 29.25 87.7396 28.1124 85.9396 27.7524L84.4708 27.45C83.6788 27.2772 83.2756 26.7876 83.2756 26.1396C83.2756 25.362 83.9956 24.6708 85.0324 24.6708C86.4004 24.6708 86.9332 25.6068 87.034 26.2404L88.5892 25.7508ZM92.4772 24.4116H90.9652V25.4628C90.9652 26.082 90.634 26.5572 89.8852 26.5572H89.5252V28.0404H90.8212V31.5684C90.8212 32.8788 91.6276 33.6564 92.9236 33.6564C93.5284 33.6564 93.8452 33.5412 93.946 33.498V32.1156L93.7616 32.1443C93.6474 32.1591 93.5017 32.1732 93.37 32.1732C92.7508 32.1732 92.4772 31.914 92.4772 31.2948V28.0404H93.9316V26.5572H92.4772V24.4116ZM98.698 32.2884C97.6756 32.2884 96.7396 31.5108 96.7396 30.0564C96.7396 28.602 97.6756 27.8532 98.698 27.8532C99.7348 27.8532 100.656 28.602 100.656 30.0564C100.656 31.5252 99.7348 32.2884 98.698 32.2884ZM98.698 26.3412C96.61 26.3412 95.0692 27.9108 95.0692 30.0564C95.0692 32.2164 96.61 33.786 98.698 33.786C100.8 33.786 102.341 32.2164 102.341 30.0564C102.341 27.9108 100.8 26.3412 98.698 26.3412ZM108.058 26.514C107.986 26.4996 107.813 26.4708 107.612 26.4708C106.69 26.4708 105.912 26.9172 105.581 27.6804V26.5572H103.954V33.57H105.624V30.2292C105.624 28.9188 106.215 28.17 107.511 28.17C107.684 28.17 107.871 28.1844 108.058 28.2132V26.514ZM110.592 29.2932C110.65 28.5444 111.255 27.738 112.306 27.738C113.458 27.738 114.005 28.4724 114.034 29.2932H110.592ZM114.221 31.122L115.632 31.5684C115.258 32.7924 114.149 33.786 112.464 33.786C110.564 33.786 108.879 32.4036 108.879 30.0276C108.879 27.81 110.52 26.3412 112.292 26.3412C114.452 26.3412 115.719 27.7668 115.719 29.9844C115.719 30.258 115.69 30.4884 115.676 30.5172H110.549C110.592 31.5828 111.428 32.346 112.464 32.346C113.472 32.346 113.991 31.8132 114.221 31.122Z" fill="black"/>
<path fill-rule="evenodd" clip-rule="evenodd" d="M29.1044 13.3539C29.8867 12.5105 30.416 11.3388 30.2715 10.17C29.1434 10.2106 27.7766 10.8365 26.9684 11.6796C26.2419 12.4268 25.6071 13.6201 25.7766 14.7654C27.0359 14.852 28.3205 14.1963 29.1044 13.3539ZM31.5054 21.4219C31.4811 18.8021 33.5645 17.545 33.658 17.4832C32.4871 15.7052 30.6624 15.4616 30.0133 15.4344C28.4611 15.2703 26.9846 16.3818 26.1962 16.3818C25.4106 16.3818 24.1955 15.4563 22.9077 15.4809C21.2152 15.5087 19.6552 16.5015 18.7849 18.0751C17.0265 21.2401 18.3339 25.9299 20.0481 28.4967C20.8856 29.7537 21.8835 31.1635 23.1937 31.1122C24.4573 31.0618 24.9343 30.2652 26.4605 30.2652C27.9857 30.2652 28.415 31.1122 29.75 31.0867C31.1083 31.0618 31.9691 29.8057 32.8008 28.5454C33.7616 27.0885 34.1571 25.6771 34.1812 25.6055C34.1506 25.5898 31.533 24.5511 31.5054 21.4219Z" fill="black"/>
</g>
<defs>
<filter id="filter0_d_552_4810" x="-14.15" y="-4.72998" width="180.3" height="75" filterUnits="userSpaceOnUse" color-interpolation-filters="sRGB">
<feFlood flood-opacity="0" result="BackgroundImageFix"/>
<feColorMatrix in="SourceAlpha" type="matrix" values="0 0 0 0 0 0 0 0 0 0 0 0 0 0 0 0 0 0 127 0" result="hardAlpha"/>
<feMorphology radius="5" operator="erode" in="SourceAlpha" result="effect1_dropShadow_552_4810"/>
<feOffset dy="10"/>
<feGaussianBlur stdDeviation="10"/>
<feComposite in2="hardAlpha" operator="out"/>
<feColorMatrix type="matrix" values="0 0 0 0 0.137255 0 0 0 0 0.133333 0 0 0 0 0.388235 0 0 0 0.06 0"/>
<feBlend mode="normal" in2="BackgroundImageFix" result="effect1_dropShadow_552_4810"/>
<feBlend mode="normal" in="SourceGraphic" in2="effect1_dropShadow_552_4810" result="shape"/>
</filter>
<clipPath id="clip0_552_4810">
<rect width="150.3" height="45" fill="white" transform="translate(0.849976 0.27002)"/>
</clipPath>
</defs>
</svg>
