<svg width="380" height="30" viewBox="0 0 380 30" fill="none" xmlns="http://www.w3.org/2000/svg">
<g clip-path="url(#clip0_552_4664)">
<path d="M26.9197 7.96729C28.8199 7.96729 30.3259 8.57322 31.4319 9.78508C32.5398 10.9969 33.0928 12.6853 33.0928 14.8482V16.6386H23.7273C23.7626 18.0191 24.1195 19.0858 24.8 19.8408C25.4804 20.5957 26.4217 20.9742 27.6257 20.9742C28.5316 20.9742 29.3513 20.8761 30.0847 20.6801C30.8181 20.484 31.5672 20.1996 32.3339 19.827V22.6528C31.6358 23.0077 30.9122 23.2685 30.1631 23.4352C29.4121 23.6038 28.514 23.6862 27.4688 23.6862C26.0903 23.6862 24.8666 23.4018 23.794 22.8332C22.7214 22.2645 21.884 21.4017 21.282 20.2447C20.68 19.0878 20.38 17.6524 20.38 15.9365C20.38 13.3442 20.982 11.3676 22.186 10.0067C23.39 8.64578 24.9686 7.96533 26.9217 7.96533L26.9197 7.96729ZM26.9197 10.5695C26.0295 10.5695 25.3098 10.8734 24.7607 11.4793C24.2117 12.0853 23.894 12.9853 23.8058 14.1795H29.9004C29.8827 13.1344 29.6337 12.2735 29.1552 11.5911C28.6748 10.9107 27.9296 10.5695 26.9178 10.5695H26.9197Z" fill="white"/>
<path d="M39.6874 23.4098L34.2988 8.2478H37.7775L40.6032 17.0034C40.7777 17.5446 40.9385 18.1407 41.0875 18.7937C41.2346 19.4467 41.3268 19.9958 41.3621 20.4448H41.466C41.5189 19.9781 41.6229 19.4232 41.7797 18.78C41.9366 18.1368 42.1013 17.5446 42.2778 17.0034L45.1035 8.2478H48.5822L43.1936 23.4098H39.6874Z" fill="white"/>
<path d="M56.3514 7.9673C58.1829 7.9673 59.5732 8.39675 60.5243 9.25368C61.4754 10.1126 61.9499 11.4362 61.9499 13.2265V23.4097H59.6223L58.9693 21.3115H58.8654C58.2555 22.1331 57.6104 22.7332 56.9299 23.1155C56.2495 23.4979 55.3259 23.6881 54.1571 23.6881C52.8845 23.6881 51.8295 23.3058 50.9922 22.541C50.1549 21.7762 49.7372 20.5918 49.7372 18.9878C49.7372 17.3837 50.2745 16.2464 51.3471 15.462C52.4197 14.6776 54.0454 14.2403 56.2259 14.1462L58.6849 14.0619V13.3069C58.6849 12.3559 58.4673 11.6696 58.03 11.2499C57.5947 10.8303 56.9828 10.6204 56.1985 10.6204C55.4827 10.6204 54.7984 10.7322 54.1454 10.9558C53.4904 11.1793 52.8413 11.4401 52.1962 11.7382L51.1491 9.27721C51.8472 8.88502 52.6453 8.56931 53.5434 8.32615C54.4415 8.08496 55.3788 7.96338 56.3554 7.96338L56.3514 7.9673ZM56.9534 16.3032C55.5063 16.3601 54.5023 16.6248 53.9454 17.1013C53.3865 17.5779 53.108 18.2152 53.108 19.0172C53.108 19.7447 53.3041 20.2624 53.6963 20.5702C54.0885 20.8781 54.6082 21.0311 55.2533 21.0311C56.2122 21.0311 57.024 20.7369 57.6868 20.1506C58.3496 19.5623 58.681 18.6917 58.681 17.5347V16.2483L56.9534 16.3052V16.3032Z" fill="white"/>
<path d="M72.0272 21.5917C72.0272 22.2408 71.7683 22.7349 71.2487 23.0702C70.729 23.4075 69.9878 23.5742 69.0211 23.5742C68.5151 23.5742 68.0837 23.5428 67.7249 23.4801C67.366 23.4173 67.017 23.3173 66.6797 23.184V21.9133C67.0346 22.0643 67.4268 22.1898 67.8563 22.2937C68.2857 22.3976 68.6916 22.4486 69.074 22.4486C69.5348 22.4486 69.8682 22.3859 70.0721 22.2584C70.2761 22.1309 70.378 21.9623 70.378 21.7486C70.378 21.6211 70.3388 21.5093 70.2584 21.4093C70.178 21.3113 70.0211 21.2015 69.7858 21.0818C69.5505 20.9622 69.2034 20.8171 68.7406 20.6426C68.2798 20.4837 67.8955 20.321 67.5896 20.1504C67.2837 19.9798 67.0523 19.7798 66.8974 19.5503C66.7424 19.3209 66.664 19.0248 66.664 18.6601C66.664 18.0816 66.9189 17.6443 67.4288 17.3482C67.9386 17.0521 68.6191 16.9031 69.4701 16.9031C69.9133 16.9031 70.3329 16.9423 70.7271 17.0227C71.1212 17.1011 71.5193 17.2207 71.9174 17.3796L71.3859 18.4836C71.0487 18.3561 70.7212 18.2502 70.4015 18.162C70.0819 18.0757 69.7544 18.0306 69.4172 18.0306C68.6818 18.0306 68.3132 18.2169 68.3132 18.5895C68.3132 18.7248 68.3602 18.8385 68.4524 18.9346C68.5445 19.0287 68.7093 19.1307 68.9446 19.2366C69.1799 19.3425 69.5152 19.4719 69.9486 19.6229C70.3741 19.7739 70.7428 19.9308 71.0526 20.0916C71.3624 20.2543 71.6016 20.4543 71.7703 20.6916C71.9389 20.9289 72.0232 21.2309 72.0232 21.5936L72.0272 21.5917Z" fill="white"/>
<path d="M76.5099 16.9011C77.4413 16.9011 78.1473 17.0835 78.6316 17.4482C79.114 17.813 79.3572 18.3738 79.3572 19.1346V23.4585H78.1727L77.8394 22.5682H77.7864C77.4766 22.9173 77.1472 23.1722 76.8021 23.335C76.4569 23.4977 75.9863 23.5781 75.3921 23.5781C74.745 23.5781 74.2077 23.4154 73.7822 23.0918C73.3567 22.7663 73.1429 22.2643 73.1429 21.5838C73.1429 20.9034 73.4155 20.419 73.9607 20.0876C74.5058 19.7543 75.3333 19.57 76.4412 19.5288L77.6923 19.4935V19.1719C77.6923 18.7679 77.5805 18.4777 77.359 18.2993C77.1374 18.1208 76.8275 18.0326 76.4275 18.0326C76.0628 18.0326 75.7157 18.0796 75.3823 18.1757C75.049 18.2718 74.7195 18.3816 74.3921 18.5091L73.8606 17.4639C74.2156 17.2972 74.6215 17.1639 75.0784 17.06C75.5353 16.958 76.0118 16.905 76.5079 16.905L76.5099 16.9011ZM76.8158 20.4406C76.0804 20.4641 75.5706 20.5779 75.2862 20.7799C75.0019 20.9818 74.8607 21.2524 74.8607 21.5936C74.8607 21.9035 74.9607 22.1231 75.1608 22.2525C75.3608 22.3839 75.6235 22.4486 75.953 22.4486C76.4412 22.4486 76.853 22.3231 77.1903 22.0741C77.5276 21.825 77.6962 21.4544 77.6962 20.9642V20.4171L76.8177 20.4406H76.8158Z" fill="white"/>
<path d="M83.1339 23.4566H81.4573V14.4304H83.1339V23.4566Z" fill="white"/>
<path d="M91.6738 17.0188V23.4566H90.356L90.1305 22.6251H90.0501C89.8109 22.9585 89.4893 23.1997 89.0853 23.3507C88.6814 23.5017 88.2539 23.5762 87.8009 23.5762C86.993 23.5762 86.3616 23.3899 85.9047 23.0173C85.4478 22.6447 85.2203 22.0466 85.2203 21.2231V17.0188H86.8969V20.9269C86.8969 21.8858 87.3401 22.3643 88.2265 22.3643C88.901 22.3643 89.3638 22.1761 89.6168 21.7996C89.8697 21.4231 89.9952 20.8799 89.9952 20.1661V17.0188H91.6718H91.6738Z" fill="white"/>
<path d="M96.1958 23.5762C95.3525 23.5762 94.6741 23.2958 94.1603 22.733C93.6465 22.1702 93.3896 21.3427 93.3896 20.2505C93.3896 19.1582 93.6505 18.3072 94.174 17.7444C94.6976 17.1816 95.3839 16.9012 96.235 16.9012C96.7664 16.9012 97.2037 16.9914 97.5449 17.1738C97.8861 17.3561 98.1586 17.5777 98.3626 17.8385H98.443C98.4155 17.7268 98.39 17.5581 98.3626 17.3287C98.3351 17.0993 98.3234 16.8855 98.3234 16.6875V14.4304H100V23.4566H98.6959L98.39 22.6134H98.3234C98.1194 22.8821 97.8488 23.1095 97.5115 23.2958C97.1743 23.4821 96.735 23.5743 96.1958 23.5743V23.5762ZM96.7017 22.3644C97.3233 22.3644 97.7586 22.2055 98.0116 21.8898C98.2645 21.5741 98.3959 21.0937 98.4038 20.4525V20.2623C98.4038 19.574 98.2822 19.0445 98.0371 18.6759C97.7939 18.3072 97.339 18.1229 96.6742 18.1229C96.1605 18.1229 95.7683 18.3111 95.4977 18.6876C95.227 19.0641 95.0917 19.5916 95.0917 20.274C95.0917 20.9564 95.229 21.4741 95.5035 21.829C95.7781 22.1859 96.1781 22.3644 96.7017 22.3644Z" fill="white"/>
<path d="M7.92023 8.84187C7.94376 8.79088 7.95749 8.76343 7.95749 8.76343C7.94768 8.76343 7.93591 8.7948 7.92023 8.84187Z" fill="#479C35"/>
<path d="M15.3639 12.7579C14.4423 5.15138 8.14767 0 8.14767 0C8.14767 0 0.998087 5.97302 0.0784072 13.5795C-0.702046 20.029 4.59249 23.8411 8.28101 23.7117C8.37318 23.7077 8.47711 22.5508 8.34572 21.835C8.17316 20.8958 7.59076 18.3505 7.43977 16.466C7.20053 13.4697 7.73979 9.44192 7.92216 8.84383C7.69861 9.33014 6.50832 12.0186 6.27497 14.6541C5.85141 19.4133 7.52997 21.3801 6.85737 21.2546C5.82199 21.0605 1.92757 18.3269 1.7452 13.0363C1.4844 5.52985 8.11237 1.83152 8.11237 1.83152C8.11237 1.83152 13.9952 5.41219 14.0148 12.9206C14.0383 22.741 6.31419 26.6766 6.31419 26.6766L6.27301 29.9886C7.6339 30.2475 16.3052 20.5193 15.3639 12.7579Z" fill="#00983A"/>
</g>
<path d="M303.294 24.6304C301.409 24.6846 299.535 24.3345 297.798 23.6036C296.06 22.8726 294.5 21.7778 293.221 20.3929C291.841 19.115 290.75 17.5561 290.023 15.8212C289.296 14.0862 288.949 12.2156 289.006 10.3354C288.998 9.58007 289.173 8.83411 289.517 8.16141C289.861 7.4887 290.362 6.90931 290.979 6.47288L291.991 5.76038C292.254 5.57913 292.552 5.45368 292.865 5.39177C293.178 5.32986 293.501 5.33278 293.814 5.40038C294.126 5.47089 294.421 5.60523 294.679 5.79495C294.937 5.98467 295.153 6.22568 295.314 6.50288L297.031 9.50288C297.314 9.99135 297.408 10.5668 297.295 11.1199C297.181 11.673 296.869 12.1652 296.416 12.5029L294.766 13.7404C295.232 14.904 295.908 15.9718 296.761 16.8904C297.679 17.744 298.747 18.4203 299.911 18.8854L301.149 17.2354C301.487 16.7842 301.979 16.4726 302.532 16.3593C303.085 16.246 303.66 16.3389 304.149 16.6204L307.149 18.3379C307.426 18.4984 307.667 18.7145 307.857 18.9727C308.046 19.2308 308.181 19.5254 308.251 19.8379C308.32 20.15 308.324 20.4732 308.262 20.7869C308.2 21.1006 308.074 21.3981 307.891 21.6604L307.186 22.6654C306.758 23.2753 306.19 23.7734 305.53 24.118C304.869 24.4626 304.136 24.6434 303.391 24.6454L303.294 24.6304ZM293.349 6.94538C293.203 6.94266 293.061 6.98743 292.944 7.07288L291.939 7.77788C291.537 8.05489 291.208 8.42579 290.982 8.8584C290.756 9.291 290.639 9.77225 290.641 10.2604C290.574 11.943 290.875 13.6199 291.523 15.1743C292.17 16.7287 293.149 18.1231 294.391 19.2604C295.511 20.4891 296.885 21.4606 298.416 22.1079C299.948 22.7553 301.602 23.0631 303.264 23.0104C303.774 23.0227 304.281 22.9112 304.739 22.6852C305.198 22.4593 305.595 22.1256 305.896 21.7129L306.601 20.7079C306.659 20.6293 306.7 20.5389 306.719 20.4429C306.739 20.347 306.737 20.248 306.714 20.1529C306.692 20.0574 306.651 19.9674 306.593 19.8886C306.535 19.8098 306.461 19.744 306.376 19.6954L303.376 17.9779C303.228 17.8909 303.054 17.862 302.886 17.8966C302.718 17.9313 302.57 18.0271 302.469 18.1654L300.489 20.8054L299.904 20.5579C298.312 20.0198 296.847 19.1622 295.599 18.0379C294.446 16.7915 293.562 15.3209 293.004 13.7179L292.839 13.1854L295.419 11.2429C295.557 11.1419 295.653 10.993 295.687 10.8253C295.722 10.6576 295.693 10.4829 295.606 10.3354L293.889 7.33538C293.84 7.25044 293.774 7.17657 293.695 7.11847C293.617 7.06036 293.527 7.01929 293.431 6.99788C293.405 6.97788 293.378 6.96031 293.349 6.94538Z" fill="white"/>
<path d="M344.805 20.9798C344.8 19.5314 344.413 18.1098 343.684 16.8582C342.955 15.6067 341.909 14.5695 340.651 13.8511C340.915 13.2681 341.053 12.6356 341.054 11.9956V10.4956C341.052 9.30298 340.578 8.15969 339.735 7.3164C338.891 6.47312 337.748 5.99866 336.555 5.99707C335.363 5.99866 334.219 6.47302 333.375 7.31622C332.531 8.15942 332.056 9.30271 332.054 10.4956V11.9956C332.054 12.6353 332.193 13.2668 332.459 13.8481C331.199 14.5684 330.151 15.6087 329.422 16.8637C328.693 18.1188 328.308 19.5441 328.306 20.9956V23.9956H344.805V20.9798ZM333.564 10.4851C333.569 9.69083 333.886 8.93028 334.447 8.36858C335.009 7.80689 335.769 7.4894 336.564 7.48507C337.354 7.49489 338.109 7.81482 338.666 8.37595C339.223 8.93708 339.537 9.6945 339.541 10.4851V11.9851C339.537 12.7792 339.219 13.5395 338.657 14.1009C338.096 14.6622 337.335 14.9794 336.541 14.9836C335.747 14.9792 334.987 14.6618 334.425 14.1003C333.864 13.5387 333.547 12.7784 333.543 11.9843L333.564 10.4851ZM329.814 22.4851V20.9851C329.813 19.7812 330.136 18.5993 330.747 17.5622C331.359 16.5251 332.237 15.6707 333.29 15.0878C333.709 15.5282 334.213 15.8788 334.772 16.1184C335.331 16.358 335.932 16.4815 336.54 16.4815C337.148 16.4815 337.749 16.358 338.308 16.1184C338.867 15.8788 339.371 15.5282 339.79 15.0878C340.847 15.6669 341.73 16.5191 342.346 17.5554C342.962 18.5918 343.288 19.7743 343.291 20.9798V22.4851H329.814Z" fill="white"/>
<path d="M379.801 10.4976H364.805V8.99756H379.801V10.4976ZM379.801 14.2476H364.805V15.7468H379.801V14.2468V14.2476ZM379.801 19.4953H364.805V20.9953H379.801V19.4953Z" fill="white"/>
<defs>
<clipPath id="clip0_552_4664">
<rect width="100" height="29.9925" fill="white"/>
</clipPath>
</defs>
</svg>
