<svg width="198" height="76" viewBox="0 0 198 76" fill="none" xmlns="http://www.w3.org/2000/svg">
<g filter="url(#filter0_d_552_4851)">
<rect x="15.15" y="5.27002" width="167" height="45" rx="22.5" fill="white"/>
</g>
<path fill-rule="evenodd" clip-rule="evenodd" d="M88.86 16.403C88.86 16.571 88.9233 16.715 89.05 16.835C89.1833 16.949 89.3433 17.006 89.53 17.006C89.7166 17.006 89.8766 16.9475 90.01 16.8305C90.1433 16.7135 90.21 16.571 90.21 16.403C90.21 16.229 90.1433 16.0835 90.01 15.9665C89.8766 15.8495 89.7166 15.791 89.53 15.791C89.3433 15.791 89.185 15.851 89.055 15.971C88.925 16.091 88.86 16.235 88.86 16.403ZM75.4 22.37H76.19V19.247H72.8V20.039H75.26C75.2466 20.219 75.1983 20.399 75.115 20.579C75.0316 20.759 74.9083 20.9375 74.745 21.1145C74.5816 21.2915 74.355 21.434 74.065 21.542C73.775 21.65 73.4433 21.704 73.07 21.704C72.39 21.704 71.8083 21.4835 71.325 21.0425C70.8416 20.6015 70.6 19.979 70.6 19.175C70.6 18.377 70.8466 17.759 71.34 17.321C71.8333 16.883 72.4233 16.664 73.11 16.664C73.6566 16.664 74.1283 16.7915 74.525 17.0465C74.9216 17.3015 75.2 17.66 75.36 18.122L76.25 17.78C76.0433 17.198 75.6583 16.7315 75.095 16.3805C74.5316 16.0295 73.87 15.854 73.11 15.854C72.51 15.854 71.9483 15.977 71.425 16.223C70.9016 16.469 70.4666 16.85 70.12 17.366C69.7733 17.882 69.6 18.485 69.6 19.175C69.6 19.865 69.765 20.468 70.095 20.984C70.425 21.5 70.8466 21.8825 71.36 22.1315C71.8733 22.3805 72.4333 22.505 73.04 22.505C73.5933 22.505 74.0666 22.403 74.46 22.199C74.8533 21.995 75.1366 21.752 75.31 21.47L75.4 22.37ZM80.84 19.76H78.21C78.23 19.46 78.36 19.2005 78.6 18.9815C78.84 18.7625 79.1466 18.653 79.52 18.653C79.9333 18.653 80.2533 18.7565 80.48 18.9635C80.7066 19.1705 80.8266 19.436 80.84 19.76ZM80.98 20.885L81.79 21.137C81.65 21.539 81.39 21.8675 81.01 22.1225C80.63 22.3775 80.17 22.505 79.63 22.505C78.9566 22.505 78.385 22.2965 77.915 21.8795C77.445 21.4625 77.21 20.9 77.21 20.192C77.21 19.532 77.4366 18.986 77.89 18.554C78.3433 18.122 78.8833 17.906 79.51 17.906C80.2366 17.906 80.8033 18.1115 81.21 18.5225C81.6166 18.9335 81.82 19.484 81.82 20.174C81.82 20.282 81.8133 20.372 81.8 20.444H78.18C78.1866 20.828 78.3283 21.143 78.605 21.389C78.8816 21.635 79.2233 21.758 79.63 21.758C80.3166 21.758 80.7666 21.467 80.98 20.885ZM84.28 18.041V16.673H83.42V17.375C83.42 17.573 83.3583 17.7335 83.235 17.8565C83.1116 17.9795 82.9266 18.041 82.68 18.041H82.42V18.806H83.34V21.182C83.34 21.572 83.46 21.875 83.7 22.091C83.94 22.307 84.2666 22.415 84.68 22.415C84.9466 22.415 85.16 22.388 85.32 22.334V21.614C85.2133 21.638 85.09 21.65 84.95 21.65C84.71 21.65 84.5383 21.602 84.435 21.506C84.3316 21.41 84.28 21.26 84.28 21.056V18.806H85.32V18.041H84.28ZM90 22.37H89.07V18.041H90V22.37ZM92.86 16.673V18.041H93.9V18.806H92.86V21.056C92.86 21.26 92.9116 21.41 93.015 21.506C93.1183 21.602 93.29 21.65 93.53 21.65C93.67 21.65 93.7933 21.638 93.9 21.614V22.334C93.74 22.388 93.5266 22.415 93.26 22.415C92.8466 22.415 92.52 22.307 92.28 22.091C92.04 21.875 91.92 21.572 91.92 21.182V18.806H91V18.041H91.26C91.5066 18.041 91.6916 17.9795 91.815 17.8565C91.9383 17.7335 92 17.573 92 17.375V16.673H92.86ZM99.71 21.749C99.29 21.749 98.9333 21.614 98.64 21.344C98.3533 21.068 98.21 20.687 98.21 20.201C98.21 19.721 98.355 19.3445 98.645 19.0715C98.935 18.7985 99.29 18.662 99.71 18.662C100.13 18.662 100.485 18.7985 100.775 19.0715C101.065 19.3445 101.21 19.721 101.21 20.201C101.21 20.687 101.065 21.0665 100.775 21.3395C100.485 21.6125 100.13 21.749 99.71 21.749ZM97.94 18.563C98.4066 18.125 98.9966 17.906 99.71 17.906C100.423 17.906 101.012 18.1235 101.475 18.5585C101.938 18.9935 102.17 19.541 102.17 20.201C102.17 20.867 101.94 21.4175 101.48 21.8525C101.02 22.2875 100.43 22.505 99.71 22.505C98.99 22.505 98.4 22.2875 97.94 21.8525C97.48 21.4175 97.25 20.867 97.25 20.201C97.25 19.541 97.48 18.995 97.94 18.563ZM104.31 22.37V19.868C104.31 19.526 104.408 19.2425 104.605 19.0175C104.802 18.7925 105.077 18.68 105.43 18.68C106.177 18.68 106.55 19.043 106.55 19.769V22.37H107.49V19.625C107.49 19.121 107.342 18.71 107.045 18.392C106.748 18.074 106.323 17.915 105.77 17.915C105.103 17.915 104.61 18.164 104.29 18.662V18.041H103.37V22.37H104.31Z" fill="#0A142F"/>
<path fill-rule="evenodd" clip-rule="evenodd" d="M80.574 32.5004V37.67H79.022L78.878 36.374C78.382 37.1228 77.214 37.886 75.406 37.886C72.446 37.886 69.822 35.9276 69.822 32.558C69.822 29.2028 72.59 27.2444 75.534 27.2444C78.286 27.2444 80.046 28.67 80.654 30.3548L78.846 30.974C78.462 29.822 77.342 28.8428 75.534 28.8428C73.694 28.8428 71.774 30.0236 71.774 32.558C71.774 35.0492 73.566 36.302 75.518 36.302C77.806 36.302 78.67 34.8908 78.766 34.0124H75.022V32.5004H80.574ZM83.982 34.1564C83.982 35.6108 85.022 36.3884 86.158 36.3884C87.31 36.3884 88.334 35.6252 88.334 34.1564C88.334 32.702 87.31 31.9532 86.158 31.9532C85.022 31.9532 83.982 32.702 83.982 34.1564ZM86.158 30.4412C83.838 30.4412 82.126 32.0108 82.126 34.1564C82.126 36.3164 83.838 37.886 86.158 37.886C88.494 37.886 90.206 36.3164 90.206 34.1564C90.206 32.0108 88.494 30.4412 86.158 30.4412ZM93.246 34.1564C93.246 35.6108 94.286 36.3884 95.422 36.3884C96.574 36.3884 97.598 35.6252 97.598 34.1564C97.598 32.702 96.574 31.9532 95.422 31.9532C94.286 31.9532 93.246 32.702 93.246 34.1564ZM95.422 30.4412C93.102 30.4412 91.39 32.0108 91.39 34.1564C91.39 36.3164 93.102 37.886 95.422 37.886C97.758 37.886 99.47 36.3164 99.47 34.1564C99.47 32.0108 97.758 30.4412 95.422 30.4412ZM104.414 40.622C102.35 40.622 100.91 39.47 100.702 38.0588L102.414 37.6556C102.542 38.5196 103.294 39.1676 104.366 39.1676C105.838 39.1676 106.574 38.4908 106.574 37.0652V36.3308C106.238 36.878 105.454 37.3532 104.318 37.3532C102.238 37.3532 100.718 35.9132 100.718 33.9404C100.718 32.0684 102.174 30.5276 104.318 30.5276C105.534 30.5276 106.286 30.974 106.622 31.55V30.6572H108.414V37.0076C108.414 38.8796 107.342 40.622 104.414 40.622ZM104.622 35.9276C103.406 35.9276 102.59 35.1644 102.59 33.9404C102.59 32.7452 103.438 31.9676 104.622 31.9676C105.774 31.9676 106.622 32.7452 106.622 33.9404C106.622 35.15 105.806 35.9276 104.622 35.9276ZM112.542 27.2444V37.67H110.686V27.2444H112.542ZM116.238 33.3932C116.302 32.6444 116.974 31.838 118.142 31.838C119.422 31.838 120.03 32.5724 120.062 33.3932H116.238ZM118.318 36.446C119.438 36.446 120.014 35.9132 120.27 35.222L121.838 35.6684C121.422 36.8924 120.19 37.886 118.318 37.886C116.206 37.886 114.334 36.5036 114.334 34.1276C114.334 31.91 116.158 30.4412 118.126 30.4412C120.526 30.4412 121.934 31.8668 121.934 34.0844C121.934 34.358 121.902 34.5884 121.886 34.6172H116.19C116.238 35.6828 117.166 36.446 118.318 36.446ZM129.758 32.1548V28.9868H131.758C132.974 28.9868 133.71 29.606 133.71 30.5852C133.71 31.55 132.974 32.1548 131.758 32.1548H129.758ZM135.662 30.5708C135.662 32.3708 134.222 33.6812 132.046 33.6812H129.758V37.67H127.838V27.4604H132.046C134.222 27.4604 135.662 28.7852 135.662 30.5708ZM139.166 37.67V27.2444H137.31V37.67H139.166ZM143.726 37.886C142.094 37.886 141.086 36.878 141.086 35.7692C141.086 34.5164 142.11 33.8252 143.438 33.6524L145.438 33.3788C145.886 33.3212 146.014 33.1196 146.014 32.8748C146.014 32.2844 145.566 31.8092 144.542 31.8092C143.566 31.8092 143.022 32.3708 142.942 33.0764L141.246 32.7308C141.39 31.5212 142.606 30.4412 144.526 30.4412C146.926 30.4412 147.838 31.6652 147.838 33.062L147.84 36.7006C147.847 37.0487 147.877 37.3196 147.902 37.4876L147.934 37.67H146.206C146.19 37.6268 146.126 37.3388 146.126 36.7772C145.758 37.31 144.99 37.886 143.726 37.886ZM144.078 36.5756C143.342 36.5756 142.942 36.1436 142.942 35.6684C142.942 35.0924 143.406 34.8044 143.982 34.718L146.014 34.4444V34.7612C146.014 36.1292 145.118 36.5756 144.078 36.5756ZM150.462 40.5068H152.446L157.406 30.6572H155.438L153.342 35.0924L151.102 30.6572H149.006L152.334 36.8348L150.462 40.5068Z" fill="#0A142F"/>
<path d="M35.2459 17.9866C35.1895 18.1671 35.15 18.3609 35.15 18.5829V36.866C35.15 37.085 35.1881 37.2777 35.2432 37.4559L46.5706 27.7342L35.2459 17.9866Z" fill="#48A0DC"/>
<path d="M37.7662 17.2765C37.239 16.9852 36.7192 16.9123 36.2803 17.0129L47.655 26.8038L50.9916 23.9408L37.7662 17.2765Z" fill="#88C057"/>
<path d="M55.8673 26.3977L52.3369 24.6188L48.7214 27.7217L52.4048 30.8929L55.8401 29.1841C57.5155 28.3191 56.9036 26.9252 55.8673 26.3977Z" fill="#FFCC66"/>
<path d="M47.6367 28.652L36.2478 38.4253C36.6934 38.5384 37.2251 38.4712 37.7658 38.1725L51.0325 31.5747L47.6367 28.652Z" fill="#ED7161"/>
<defs>
<filter id="filter0_d_552_4851" x="0.150024" y="0.27002" width="197" height="75" filterUnits="userSpaceOnUse" color-interpolation-filters="sRGB">
<feFlood flood-opacity="0" result="BackgroundImageFix"/>
<feColorMatrix in="SourceAlpha" type="matrix" values="0 0 0 0 0 0 0 0 0 0 0 0 0 0 0 0 0 0 127 0" result="hardAlpha"/>
<feMorphology radius="5" operator="erode" in="SourceAlpha" result="effect1_dropShadow_552_4851"/>
<feOffset dy="10"/>
<feGaussianBlur stdDeviation="10"/>
<feComposite in2="hardAlpha" operator="out"/>
<feColorMatrix type="matrix" values="0 0 0 0 0.137255 0 0 0 0 0.133333 0 0 0 0 0.388235 0 0 0 0.06 0"/>
<feBlend mode="normal" in2="BackgroundImageFix" result="effect1_dropShadow_552_4851"/>
<feBlend mode="normal" in="SourceGraphic" in2="effect1_dropShadow_552_4851" result="shape"/>
</filter>
</defs>
</svg>
