<svg width="28" height="29" viewBox="0 0 28 29" fill="none" xmlns="http://www.w3.org/2000/svg">
<mask id="mask0_568_4226" style="mask-type:luminance" maskUnits="userSpaceOnUse" x="2" y="3" width="25" height="24">
<path fill-rule="evenodd" clip-rule="evenodd" d="M2.33337 3.79346H26.218V26.5446H2.33337V3.79346Z" fill="white"/>
</mask>
<g mask="url(#mask0_568_4226)">
<path fill-rule="evenodd" clip-rule="evenodd" d="M4.46108 14.4371C6.09675 19.5261 12.5589 23.6409 14.2762 24.6594C15.9994 23.6304 22.5082 19.4701 24.0914 14.4418C25.1309 11.1914 24.1661 7.07426 20.3324 5.83876C18.4751 5.24259 16.3086 5.60543 14.8129 6.76276C14.5002 7.00309 14.0662 7.00776 13.7512 6.76976C12.1669 5.57859 10.0972 5.22976 8.21075 5.83876C4.38291 7.07309 3.42158 11.1903 4.46108 14.4371M14.2774 26.5448C14.1327 26.5448 13.9892 26.5098 13.8586 26.4386C13.4934 26.2391 4.89158 21.4978 2.79508 14.9714C2.79391 14.9714 2.79391 14.9703 2.79391 14.9703C1.47791 10.8613 2.94325 5.69759 7.67408 4.17276C9.89541 3.45409 12.3162 3.77026 14.2739 5.00576C16.1709 3.80643 18.6909 3.47509 20.8679 4.17276C25.6034 5.69993 27.0734 10.8624 25.7586 14.9703C23.7297 21.4219 15.0649 26.2344 14.6974 26.4363C14.5667 26.5086 14.4221 26.5448 14.2774 26.5448" fill="white"/>
</g>
<path fill-rule="evenodd" clip-rule="evenodd" d="M21.1794 12.6892C20.7279 12.6892 20.3452 12.3427 20.3079 11.8854C20.2309 10.9264 19.5892 10.1167 18.6757 9.82152C18.2149 9.67219 17.9629 9.17869 18.1111 8.72019C18.2616 8.26052 18.7504 8.01086 19.2124 8.15552C20.8026 8.67002 21.9167 10.0782 22.0532 11.743C22.0917 12.2249 21.7336 12.6472 21.2517 12.6857C21.2272 12.688 21.2039 12.6892 21.1794 12.6892" fill="white"/>
</svg>
