<svg width="14" height="15" viewBox="0 0 14 15" fill="none" xmlns="http://www.w3.org/2000/svg">
<path d="M10.4525 8.64695C10.3014 8.79337 10.232 9.00512 10.2664 9.21279L10.785 12.0828C10.8288 12.326 10.7261 12.5722 10.5225 12.7128C10.323 12.8586 10.0576 12.8761 9.84001 12.7595L7.25643 11.412C7.1666 11.3641 7.06685 11.3385 6.96476 11.3355H6.80668C6.75185 11.3437 6.69818 11.3612 6.64918 11.388L4.06501 12.742C3.93726 12.8061 3.7926 12.8289 3.65085 12.8061C3.30551 12.7408 3.0751 12.4118 3.13168 12.0647L3.65085 9.1947C3.68526 8.98529 3.61585 8.77237 3.46476 8.62362L1.35835 6.58195C1.18218 6.41104 1.12093 6.15437 1.20143 5.92279C1.2796 5.69179 1.4791 5.5232 1.72001 5.48529L4.61918 5.0647C4.83968 5.04195 5.03335 4.90779 5.13251 4.70945L6.41001 2.09029C6.44035 2.03195 6.47943 1.97829 6.52668 1.93279L6.57918 1.89195C6.6066 1.86162 6.6381 1.83654 6.6731 1.81612L6.73668 1.79279L6.83585 1.75195H7.08143C7.30076 1.7747 7.49385 1.90595 7.59476 2.10195L8.88918 4.70945C8.98251 4.9002 9.16393 5.03262 9.37335 5.0647L12.2725 5.48529C12.5175 5.52029 12.7223 5.68945 12.8033 5.92279C12.8798 6.1567 12.8138 6.41337 12.6342 6.58195L10.4525 8.64695Z" fill="url(#paint0_linear_587_7867)"/>
<defs>
<linearGradient id="paint0_linear_587_7867" x1="12.8347" y1="12.836" x2="-0.933906" y2="8.63357" gradientUnits="userSpaceOnUse">
<stop stop-color="#FB9400"/>
<stop offset="1" stop-color="#FFAB38"/>
</linearGradient>
</defs>
</svg>
