<svg width="20" height="21" viewBox="0 0 20 21" fill="none" xmlns="http://www.w3.org/2000/svg">
<path d="M14.9321 12.2147C14.7163 12.4238 14.6171 12.7263 14.6663 13.023L15.4071 17.123C15.4696 17.4705 15.3229 17.8222 15.0321 18.023C14.7471 18.2313 14.3679 18.2563 14.0571 18.0897L10.3663 16.1647C10.2379 16.0963 10.0954 16.0597 9.94961 16.0555H9.72378C9.64544 16.0672 9.56878 16.0922 9.49878 16.1305L5.80711 18.0647C5.62461 18.1563 5.41794 18.1888 5.21544 18.1563C4.72211 18.063 4.39294 17.593 4.47378 17.0972L5.21544 12.9972C5.26461 12.698 5.16544 12.3938 4.94961 12.1813L1.94045 9.26465C1.68878 9.02049 1.60128 8.65382 1.71628 8.32299C1.82795 7.99299 2.11294 7.75215 2.45711 7.69799L6.59878 7.09715C6.91378 7.06465 7.19044 6.87299 7.33211 6.58965L9.15711 2.84799C9.20044 2.76465 9.25628 2.68799 9.32378 2.62299L9.39878 2.56465C9.43794 2.52132 9.48294 2.48549 9.53294 2.45632L9.62378 2.42299L9.76544 2.36465H10.1163C10.4296 2.39715 10.7054 2.58465 10.8496 2.86465L12.6988 6.58965C12.8321 6.86215 13.0913 7.05132 13.3904 7.09715L17.5321 7.69799C17.8821 7.74799 18.1746 7.98965 18.2904 8.32299C18.3996 8.65715 18.3054 9.02382 18.0488 9.26465L14.9321 12.2147Z" fill="url(#paint0_linear_568_3948)"/>
<defs>
<linearGradient id="paint0_linear_568_3948" x1="18.3352" y1="18.199" x2="-1.3342" y2="12.1955" gradientUnits="userSpaceOnUse">
<stop stop-color="#FB9400"/>
<stop offset="1" stop-color="#FFAB38"/>
</linearGradient>
</defs>
</svg>
