<svg width="18" height="19" viewBox="0 0 18 19" fill="none" xmlns="http://www.w3.org/2000/svg">
<path d="M12.4731 10.0216C12.4307 10.0651 12.2707 10.2511 12.1217 10.4041C11.2478 11.3663 8.96822 12.9413 7.77509 13.4221C7.59389 13.4993 7.13578 13.6628 6.89101 13.6733C6.65648 13.6733 6.4329 13.6193 6.21956 13.5098C5.9536 13.3568 5.74026 13.1161 5.62336 12.8318C5.5481 12.6346 5.4312 12.0443 5.4312 12.0338C5.3143 11.3881 5.25 10.3388 5.25 9.17934C5.25 8.07459 5.3143 7.06809 5.41001 6.41259C5.42097 6.40209 5.53787 5.66859 5.66573 5.41734C5.90027 4.95834 6.35838 4.67334 6.84864 4.67334H6.89101C7.2103 4.68459 7.88176 4.96959 7.88176 4.98009C9.01059 5.46159 11.2376 6.95934 12.1326 7.95459C12.1326 7.95459 12.3847 8.21034 12.4943 8.37009C12.6652 8.59959 12.75 8.88384 12.75 9.16809C12.75 9.48534 12.6543 9.78084 12.4731 10.0216" fill="#00983A"/>
</svg>
