<svg width="20" height="21" viewBox="0 0 20 21" fill="none" xmlns="http://www.w3.org/2000/svg">
<path d="M8.60851 14.8201H3.35791" stroke="#00983A" stroke-width="1.5" stroke-linecap="round" stroke-linejoin="round"/>
<path d="M10.9504 6.7429H16.201" stroke="#00983A" stroke-width="1.5" stroke-linecap="round" stroke-linejoin="round"/>
<path fill-rule="evenodd" clip-rule="evenodd" d="M7.27195 6.69789C7.27195 5.61817 6.39015 4.74268 5.30266 4.74268C4.21517 4.74268 3.33337 5.61817 3.33337 6.69789C3.33337 7.7776 4.21517 8.6531 5.30266 8.6531C6.39015 8.6531 7.27195 7.7776 7.27195 6.69789Z" stroke="#00983A" stroke-width="1.5" stroke-linecap="round" stroke-linejoin="round"/>
<path fill-rule="evenodd" clip-rule="evenodd" d="M16.6667 14.7875C16.6667 13.7078 15.7856 12.8323 14.6981 12.8323C13.6099 12.8323 12.7281 13.7078 12.7281 14.7875C12.7281 15.8672 13.6099 16.7427 14.6981 16.7427C15.7856 16.7427 16.6667 15.8672 16.6667 14.7875Z" stroke="#00983A" stroke-width="1.5" stroke-linecap="round" stroke-linejoin="round"/>
</svg>
