<svg width="32" height="33" viewBox="0 0 32 33" fill="none" xmlns="http://www.w3.org/2000/svg">
<path fill-rule="evenodd" clip-rule="evenodd" d="M2.66669 16.3013C2.66669 8.94187 8.65124 2.96021 16 2.96021C23.3488 2.96021 29.3334 8.94187 29.3334 16.3013C29.3334 23.6452 23.3488 29.6269 16 29.6269C8.65124 29.6269 2.66669 23.6452 2.66669 16.3013ZM20.8906 17.6507C21.0322 17.5092 21.2124 17.2905 21.251 17.239C21.4569 16.9689 21.5599 16.6344 21.5599 16.3013C21.5599 15.9269 21.444 15.5796 21.2252 15.2966C21.2073 15.2787 21.1722 15.2405 21.1265 15.1907C21.0408 15.0975 20.918 14.9637 20.8005 14.8464C19.7452 13.7143 16.991 11.862 15.5496 11.2959C15.3308 11.2072 14.7774 11.0129 14.4814 11.0001C14.1982 11.0001 13.9279 11.0644 13.6705 11.193C13.3488 11.3731 13.0914 11.6561 12.9498 11.9906C12.8597 12.2221 12.7182 12.9168 12.7182 12.9297C12.5766 13.6886 12.4994 14.9235 12.4994 16.2871C12.4994 17.5876 12.5766 18.7698 12.6924 19.5416C12.6956 19.5448 12.7067 19.6 12.7239 19.6858C12.7762 19.9465 12.8851 20.4896 13.0013 20.7123C13.2844 21.2525 13.8379 21.587 14.4299 21.587H14.4814C14.8675 21.5741 15.6783 21.2397 15.6783 21.2268C17.0425 20.6608 19.7323 18.8985 20.8134 17.7279L20.8906 17.6507Z" fill="#00983A"/>
</svg>
