<svg width="24" height="25" viewBox="0 0 24 25" fill="none" xmlns="http://www.w3.org/2000/svg">
<path fill-rule="evenodd" clip-rule="evenodd" d="M15.88 21.1901C15.91 21.3501 15.82 21.5201 15.67 21.5801C14.54 22.0301 13.3 22.2701 12.02 22.2701C9.80999 22.2701 7.76997 21.5601 6.11997 20.3401C5.97997 20.2401 5.94 20.0401 6.03 19.8901C6.58 18.9101 8.72995 15.7601 13.48 14.0001C13.6599 13.9301 13.86 14.0201 13.92 14.2001C15.11 17.3901 15.67 20.0901 15.88 21.1901Z" fill="#00983A"/>
<path fill-rule="evenodd" clip-rule="evenodd" d="M21.82 14.1599C21.36 16.6199 19.98 18.7599 18.05 20.2199C17.84 20.3799 17.54 20.2599 17.49 20.0099C17.28 18.9299 16.77 16.5999 15.79 13.8299C15.72 13.6199 15.86 13.3899 16.08 13.3599C18.57 13.0599 20.75 13.5399 21.57 13.7599C21.74 13.8199 21.85 13.9899 21.82 14.1599Z" fill="#00983A"/>
<path fill-rule="evenodd" clip-rule="evenodd" d="M21.5901 12.0899C20.5701 11.9099 17.9701 11.5299 15.3101 11.8199C15.1501 11.8399 15.0101 11.7499 14.9401 11.5999C14.9001 11.5099 14.8701 11.4199 14.8301 11.3299C14.6701 10.9599 14.5001 10.5799 14.3301 10.2099C14.2401 10.0299 14.3301 9.80991 14.5101 9.72991C17.3101 8.51991 18.8701 6.95991 19.4801 6.25991C19.6301 6.08991 19.8901 6.09993 20.0301 6.27993C21.1801 7.80993 21.8901 9.67991 22.0001 11.6999C22.0101 11.9499 21.8101 12.1299 21.5901 12.0899Z" fill="#00983A"/>
<path fill-rule="evenodd" clip-rule="evenodd" d="M18.4401 5.05991C17.9201 5.68991 16.4601 7.18989 13.6901 8.28989C13.5301 8.35989 13.3401 8.28988 13.2501 8.12988C11.9701 5.80988 10.6101 3.85989 9.98006 2.97989C9.83006 2.76989 9.95009 2.4699 10.2001 2.4299C10.7801 2.3299 11.3901 2.27991 12.0101 2.27991C14.4301 2.27991 16.6601 3.1399 18.3901 4.5799C18.5401 4.6899 18.5601 4.90991 18.4401 5.05991Z" fill="#00983A"/>
<path fill-rule="evenodd" clip-rule="evenodd" d="M11.02 9.10993C7.23002 10.0599 3.87998 10.1899 2.65998 10.2099C2.42998 10.2099 2.26001 9.98993 2.32001 9.76993C3.04001 6.96993 4.95999 4.62994 7.48999 3.33994C7.63999 3.25994 7.83 3.30993 7.93 3.44993C8.45 4.16993 9.85999 6.19994 11.24 8.58994C11.35 8.78994 11.25 9.04993 11.02 9.10993Z" fill="#00983A"/>
<path fill-rule="evenodd" clip-rule="evenodd" d="M12.92 11.8699C13.01 12.0599 12.9 12.2899 12.7 12.3599C8.27001 13.7899 5.62001 17.3399 4.82001 18.5599C4.69001 18.7599 4.41001 18.7699 4.26001 18.5899C2.86001 16.8699 2.01001 14.8999 2.01001 12.5099V12.3299C2.01001 12.1299 2.17 11.9699 2.37 11.9799C3.63 12.0299 7.74001 11.8599 12.01 10.6299C12.17 10.5799 12.35 10.6599 12.42 10.8099C12.59 11.1599 12.76 11.5099 12.92 11.8699Z" fill="#00983A"/>
</svg>
