<svg width="24" height="25" viewBox="0 0 24 25" fill="none" xmlns="http://www.w3.org/2000/svg">
<path d="M21.98 11.68C21.64 5.87997 16.37 1.40998 10.3 2.40998C6.11998 3.09998 2.76999 6.48996 2.11999 10.67C1.73999 13.09 2.24001 15.38 3.33001 17.27L2.43999 20.58C2.23999 21.33 2.92998 22.01 3.66998 21.8L6.92998 20.9C8.40998 21.77 10.14 22.27 11.99 22.27C17.63 22.27 22.31 17.3 21.98 11.68ZM16.88 15.99C16.79 16.17 16.68 16.34 16.54 16.5C16.29 16.77 16.02 16.97 15.72 17.09C15.42 17.22 15.09 17.28 14.74 17.28C14.23 17.28 13.68 17.16 13.11 16.91C12.53 16.66 11.96 16.33 11.39 15.92C10.81 15.5 10.27 15.03 9.74999 14.52C9.22999 14 8.76997 13.45 8.34997 12.88C7.93997 12.31 7.60999 11.74 7.36999 11.17C7.12999 10.6 7.01 10.05 7.01 9.52998C7.01 9.18998 7.06999 8.85998 7.18999 8.55998C7.30999 8.24998 7.50001 7.96998 7.77001 7.71998C8.09001 7.39998 8.43999 7.24998 8.80999 7.24998C8.94999 7.24998 9.08996 7.27997 9.21996 7.33997C9.34996 7.39997 9.46999 7.48997 9.55999 7.61997L10.72 9.25996C10.81 9.38996 10.88 9.49996 10.92 9.60996C10.97 9.71996 10.99 9.81996 10.99 9.91996C10.99 10.04 10.95 10.16 10.88 10.28C10.81 10.4 10.72 10.52 10.6 10.64L10.22 11.04C10.16 11.1 10.14 11.16 10.14 11.24C10.14 11.28 10.15 11.32 10.16 11.36C10.18 11.4 10.19 11.43 10.2 11.46C10.29 11.63 10.45 11.84 10.67 12.1C10.9 12.36 11.14 12.63 11.4 12.89C11.67 13.16 11.93 13.4 12.2 13.63C12.46 13.85 12.68 14 12.85 14.09C12.88 14.1 12.91 14.12 12.94 14.13C12.98 14.15 13.02 14.15 13.07 14.15C13.16 14.15 13.22 14.12 13.28 14.06L13.66 13.68C13.79 13.55 13.91 13.46 14.02 13.4C14.14 13.33 14.25 13.29 14.38 13.29C14.48 13.29 14.58 13.31 14.69 13.36C14.8 13.41 14.92 13.47 15.04 13.56L16.7 14.74C16.83 14.83 16.92 14.94 16.98 15.06C17.03 15.19 17.06 15.31 17.06 15.45C17 15.62 16.96 15.81 16.88 15.99Z" fill="#00983A"/>
</svg>
