<svg width="24" height="25" viewBox="0 0 24 25" fill="none" xmlns="http://www.w3.org/2000/svg">
<path d="M12.0001 2.27002H8.67004C6.83004 2.27002 5.34009 3.76001 5.34009 5.60001C5.34009 7.44001 6.83004 8.93002 8.67004 8.93002H12.0001V2.27002Z" fill="#00983A"/>
<path d="M12.0001 8.94006H8.67004C6.83004 8.94006 5.34009 10.4301 5.34009 12.2701C5.34009 14.1101 6.83004 15.6 8.67004 15.6H12.0001V8.94006Z" fill="#00983A"/>
<path d="M12.0001 15.6H8.67004C6.83004 15.6 5.34009 17.09 5.34009 18.93C5.34009 20.77 6.83004 22.26 8.67004 22.26C10.51 22.26 12.0001 20.77 12.0001 18.93V15.6Z" fill="#00983A"/>
<path d="M12 2.27002H15.33C17.17 2.27002 18.66 3.76001 18.66 5.60001C18.66 7.44001 17.17 8.93002 15.33 8.93002H12V2.27002Z" fill="#00983A"/>
<path d="M15.33 8.94006C17.17 8.94006 18.66 10.4301 18.66 12.2701C18.66 14.1101 17.17 15.6 15.33 15.6C13.49 15.6 12 14.1101 12 12.2701C12 10.4301 13.49 8.94006 15.33 8.94006Z" fill="#00983A"/>
</svg>
