<svg width="24" height="25" viewBox="0 0 24 25" fill="none" xmlns="http://www.w3.org/2000/svg">
<path d="M22 16.4601C22 20.1001 19.83 22.2701 16.19 22.2701H15C14.45 22.2701 14 21.8201 14 21.2701V15.5002C14 15.2302 14.22 15.0002 14.49 15.0002L16.25 14.9702C16.39 14.9602 16.51 14.8602 16.54 14.7202L16.89 12.8102C16.92 12.6302 16.78 12.4601 16.59 12.4601L14.46 12.4901C14.18 12.4901 13.96 12.2702 13.95 12.0002L13.91 9.55014C13.91 9.39014 14.04 9.25015 14.21 9.25015L16.61 9.21014C16.78 9.21014 16.91 9.08016 16.91 8.91016L16.87 6.51013C16.87 6.34013 16.74 6.21014 16.57 6.21014L13.87 6.25015C12.21 6.28015 10.89 7.64014 10.92 9.30014L10.97 12.0501C10.98 12.3301 10.76 12.5502 10.48 12.5602L9.28 12.5801C9.11 12.5801 8.98001 12.7101 8.98001 12.8801L9.01001 14.7802C9.01001 14.9502 9.14 15.0801 9.31 15.0801L10.51 15.0602C10.79 15.0602 11.01 15.2801 11.02 15.5501L11.11 21.2502C11.12 21.8102 10.67 22.2701 10.11 22.2701H7.81C4.17 22.2701 2 20.1001 2 16.4501V8.08014C2 4.44014 4.17 2.27014 7.81 2.27014H16.19C19.83 2.27014 22 4.44014 22 8.08014V16.4601V16.4601Z" fill="#00983A"/>
</svg>
