<svg width="150" height="46" viewBox="0 0 150 46" fill="none" xmlns="http://www.w3.org/2000/svg">
<g clip-path="url(#clip0_552_4775)">
<path d="M40.3796 12.2322C43.2298 12.2322 45.4888 13.1411 47.1478 14.9589C48.8097 16.7767 49.6391 19.3092 49.6391 22.5536V25.2391H35.591C35.6439 27.3098 36.1793 28.91 37.1999 30.0424C38.2206 31.1749 39.6325 31.7425 41.4385 31.7425C42.7974 31.7425 44.0269 31.5955 45.127 31.3013C46.2271 31.0072 47.3507 30.5807 48.5008 30.0218V34.2604C47.4537 34.7928 46.3683 35.184 45.2447 35.434C44.1181 35.687 42.771 35.8105 41.2032 35.8105C39.1354 35.8105 37.2999 35.384 35.691 34.531C34.082 33.678 32.8261 32.3838 31.9231 30.6483C31.02 28.9129 30.57 26.7598 30.57 24.1861C30.57 20.2975 31.473 17.3326 33.279 15.2913C35.0851 13.2499 37.4529 12.2292 40.3825 12.2292L40.3796 12.2322ZM40.3796 16.1354C39.0442 16.1354 37.9647 16.5914 37.1411 17.5003C36.3175 18.4091 35.841 19.7593 35.7086 21.5506H44.8505C44.8241 19.9828 44.4505 18.6915 43.7328 17.6679C43.0122 16.6472 41.8944 16.1354 40.3767 16.1354H40.3796Z" fill="white"/>
<path d="M59.5311 35.3958L51.4481 12.6528H56.6662L60.9047 25.7862C61.1665 26.598 61.4077 27.4922 61.6313 28.4717C61.8519 29.4512 61.9901 30.2748 62.0431 30.9484H62.199C62.2784 30.2483 62.4343 29.4159 62.6696 28.4511C62.9049 27.4863 63.152 26.598 63.4167 25.7862L67.6553 12.6528H72.8733L64.7903 35.3958H59.5311Z" fill="white"/>
<path d="M84.5272 12.2322C87.2745 12.2322 89.3599 12.8764 90.7865 14.1618C92.2131 15.4501 92.9249 17.4355 92.9249 20.1211V35.3958H89.4335L88.454 32.2485H88.2981C87.3833 33.4809 86.4156 34.381 85.3949 34.9546C84.3742 35.5281 82.9888 35.8135 81.2358 35.8135C79.3268 35.8135 77.7443 35.2399 76.4883 34.0927C75.2324 32.9456 74.6058 31.169 74.6058 28.7629C74.6058 26.3568 75.4118 24.6508 77.0207 23.4743C78.6297 22.2977 81.0681 21.6418 84.339 21.5006L88.0275 21.3741V20.2417C88.0275 18.8151 87.701 17.7856 87.045 17.1561C86.392 16.5267 85.4743 16.2119 84.2978 16.2119C83.2242 16.2119 82.1976 16.3796 81.2181 16.7149C80.2357 17.0502 79.2621 17.4414 78.2944 17.8885L76.7236 14.1971C77.7708 13.6088 78.9679 13.1352 80.3151 12.7705C81.6623 12.4087 83.0683 12.2263 84.5331 12.2263L84.5272 12.2322ZM85.4302 24.7361C83.2595 24.8214 81.7535 25.2185 80.9181 25.9333C80.0798 26.648 79.6621 27.604 79.6621 28.807C79.6621 29.8983 79.9562 30.6748 80.5445 31.1366C81.1328 31.5984 81.9123 31.8279 82.88 31.8279C84.3184 31.8279 85.5361 31.3866 86.5303 30.5072C87.5245 29.6247 88.0216 28.3188 88.0216 26.5833V24.6538L85.4302 24.7391V24.7361Z" fill="white"/>
<path d="M108.041 32.669C108.041 33.6426 107.653 34.3839 106.873 34.8868C106.094 35.3928 104.982 35.6428 103.532 35.6428C102.773 35.6428 102.126 35.5957 101.587 35.5016C101.049 35.4075 100.526 35.2575 100.02 35.0574V33.1514C100.552 33.3779 101.14 33.5661 101.784 33.722C102.429 33.8779 103.038 33.9544 103.611 33.9544C104.302 33.9544 104.802 33.8603 105.108 33.6691C105.414 33.4779 105.567 33.2249 105.567 32.9043C105.567 32.7131 105.508 32.5455 105.388 32.3955C105.267 32.2484 105.032 32.0837 104.679 31.9042C104.326 31.7248 103.805 31.5072 103.111 31.2454C102.42 31.0071 101.843 30.763 101.384 30.5071C100.926 30.2512 100.578 29.9512 100.346 29.607C100.114 29.2629 99.9961 28.8187 99.9961 28.2716C99.9961 27.4039 100.378 26.748 101.143 26.3038C101.908 25.8597 102.929 25.6361 104.205 25.6361C104.87 25.6361 105.499 25.6949 106.091 25.8155C106.682 25.9332 107.279 26.1126 107.876 26.3509L107.079 28.0069C106.573 27.8157 106.082 27.6569 105.602 27.5245C105.123 27.3951 104.632 27.3274 104.126 27.3274C103.023 27.3274 102.47 27.6069 102.47 28.1657C102.47 28.3687 102.54 28.5393 102.679 28.6834C102.817 28.8246 103.064 28.9775 103.417 29.1364C103.77 29.2952 104.273 29.4894 104.923 29.7158C105.561 29.9423 106.114 30.1776 106.579 30.4188C107.044 30.663 107.403 30.963 107.656 31.3189C107.908 31.6748 108.035 32.1278 108.035 32.672L108.041 32.669Z" fill="white"/>
<path d="M114.765 25.6332C116.162 25.6332 117.221 25.9067 117.947 26.4538C118.671 27.0009 119.036 27.8422 119.036 28.9834V35.4692H117.259L116.759 34.1338H116.68C116.215 34.6574 115.721 35.0398 115.203 35.2839C114.685 35.5281 113.98 35.6487 113.088 35.6487C112.118 35.6487 111.312 35.4045 110.673 34.9192C110.035 34.4309 109.714 33.6779 109.714 32.6573C109.714 31.6366 110.123 30.9101 110.941 30.413C111.759 29.9129 113 29.6364 114.662 29.5747L116.539 29.5217V29.0393C116.539 28.4334 116.371 27.9981 116.039 27.7304C115.706 27.4627 115.241 27.3304 114.641 27.3304C114.094 27.3304 113.574 27.401 113.074 27.5451C112.574 27.6892 112.079 27.8539 111.588 28.0451L110.791 26.4774C111.323 26.2273 111.932 26.0273 112.618 25.8714C113.303 25.7185 114.018 25.6391 114.762 25.6391L114.765 25.6332ZM115.224 30.9424C114.121 30.9777 113.356 31.1483 112.929 31.4513C112.503 31.7542 112.291 32.1602 112.291 32.672C112.291 33.1367 112.441 33.4661 112.741 33.6603C113.041 33.8574 113.435 33.9544 113.93 33.9544C114.662 33.9544 115.28 33.7662 115.786 33.3926C116.291 33.0191 116.544 32.4631 116.544 31.7278V30.9071L115.227 30.9424H115.224Z" fill="white"/>
<path d="M124.701 35.4663H122.186V21.927H124.701V35.4663Z" fill="white"/>
<path d="M137.511 25.8097V35.4663H135.534L135.196 34.2192H135.075C134.717 34.7192 134.234 35.081 133.628 35.3075C133.022 35.534 132.381 35.6458 131.702 35.6458C130.49 35.6458 129.543 35.3663 128.857 34.8075C128.172 34.2486 127.831 33.3515 127.831 32.1161V25.8097H130.346V31.6719C130.346 33.1103 131.01 33.828 132.34 33.828C133.352 33.828 134.046 33.5456 134.425 32.9808C134.805 32.4161 134.993 31.6013 134.993 30.5306V25.8097H137.508H137.511Z" fill="white"/>
<path d="M144.294 35.6457C143.029 35.6457 142.011 35.2251 141.24 34.3809C140.47 33.5367 140.084 32.2955 140.084 30.6571C140.084 29.0187 140.476 27.7422 141.261 26.898C142.046 26.0538 143.076 25.6332 144.352 25.6332C145.15 25.6332 145.806 25.7685 146.317 26.042C146.829 26.3156 147.238 26.648 147.544 27.0392H147.664C147.623 26.8715 147.585 26.6185 147.544 26.2744C147.503 25.9303 147.485 25.6096 147.485 25.3126V21.927H150V35.4663H148.044L147.585 34.2015H147.485C147.179 34.6045 146.773 34.9457 146.267 35.2251C145.761 35.5045 145.103 35.6428 144.294 35.6428V35.6457ZM145.053 33.8279C145.985 33.8279 146.638 33.5897 147.017 33.1161C147.397 32.6425 147.594 31.9219 147.606 30.9601V30.6747C147.606 29.6423 147.423 28.8481 147.056 28.2951C146.691 27.7422 146.008 27.4657 145.011 27.4657C144.241 27.4657 143.652 27.748 143.246 28.3128C142.841 28.8775 142.638 29.6688 142.638 30.6924C142.638 31.716 142.844 32.4925 143.255 33.0249C143.667 33.5603 144.267 33.8279 145.053 33.8279Z" fill="white"/>
<path d="M11.8803 13.544C11.9156 13.4676 11.9362 13.4264 11.9362 13.4264C11.9215 13.4264 11.9038 13.4735 11.8803 13.544Z" fill="#479C35"/>
<path d="M23.0459 19.418C21.6634 8.00833 12.2215 0.28125 12.2215 0.28125C12.2215 0.28125 1.49716 9.24078 0.117641 20.6505C-1.05304 30.3248 6.88876 36.0429 12.4215 35.8487C12.5598 35.8429 12.7157 34.1074 12.5186 33.0338C12.2598 31.6249 11.3862 27.8069 11.1597 24.9802C10.8008 20.4858 11.6097 14.4441 11.8833 13.547C11.5479 14.2765 9.76251 18.3091 9.41249 22.2624C8.77714 29.4012 11.295 32.3514 10.2861 32.1632C8.73302 31.872 2.89139 27.7716 2.61784 19.8357C2.22663 8.57602 12.1686 3.02852 12.1686 3.02852C12.1686 3.02852 20.9928 8.39953 21.0222 19.6622C21.0575 34.3927 9.47132 40.2961 9.47132 40.2961L9.40955 45.2642C11.4509 45.6525 24.4578 31.0601 23.0459 19.418Z" fill="#00983A"/>
</g>
<defs>
<clipPath id="clip0_552_4775">
<rect width="150" height="44.9888" fill="white" transform="translate(0 0.28125)"/>
</clipPath>
</defs>
</svg>
