<svg width="20" height="21" viewBox="0 0 20 21" fill="none" xmlns="http://www.w3.org/2000/svg">
<g clip-path="url(#clip0_568_3725)">
<path d="M10 7.65926C8.15837 7.65926 6.66671 9.15093 6.66671 10.9926C6.66671 12.8343 8.15837 14.3259 10 14.3259C11.8417 14.3259 13.3334 12.8343 13.3334 10.9926C13.3334 9.15093 11.8417 7.65926 10 7.65926ZM17.45 10.1593C17.0667 6.68426 14.3084 3.92593 10.8334 3.54259V2.65926C10.8334 2.20093 10.4584 1.82593 10 1.82593C9.54171 1.82593 9.16671 2.20093 9.16671 2.65926V3.54259C5.69171 3.92593 2.93337 6.68426 2.55004 10.1593H1.66671C1.20837 10.1593 0.833374 10.5343 0.833374 10.9926C0.833374 11.4509 1.20837 11.8259 1.66671 11.8259H2.55004C2.93337 15.3009 5.69171 18.0593 9.16671 18.4426V19.3259C9.16671 19.7843 9.54171 20.1593 10 20.1593C10.4584 20.1593 10.8334 19.7843 10.8334 19.3259V18.4426C14.3084 18.0593 17.0667 15.3009 17.45 11.8259H18.3334C18.7917 11.8259 19.1667 11.4509 19.1667 10.9926C19.1667 10.5343 18.7917 10.1593 18.3334 10.1593H17.45ZM10 16.8259C6.77504 16.8259 4.16671 14.2176 4.16671 10.9926C4.16671 7.76759 6.77504 5.15926 10 5.15926C13.225 5.15926 15.8334 7.76759 15.8334 10.9926C15.8334 14.2176 13.225 16.8259 10 16.8259Z" fill="#00983A"/>
</g>
<defs>
<clipPath id="clip0_568_3725">
<rect width="20" height="20" fill="white" transform="translate(0 0.992676)"/>
</clipPath>
</defs>
</svg>
