<svg width="24" height="25" viewBox="0 0 24 25" fill="none" xmlns="http://www.w3.org/2000/svg">
<path d="M15.9766 15.4642H15.1866L14.9066 15.1942C16.1066 13.7942 16.7266 11.8842 16.3866 9.85425C15.9166 7.07425 13.5966 4.85425 10.7966 4.51425C6.56658 3.99425 3.00658 7.55425 3.52658 11.7842C3.86658 14.5842 6.08658 16.9042 8.86658 17.3742C10.8966 17.7142 12.8066 17.0942 14.2066 15.8942L14.4766 16.1742V16.9642L18.7266 21.2142C19.1366 21.6242 19.8066 21.6242 20.2166 21.2142C20.6266 20.8042 20.6266 20.1342 20.2166 19.7242L15.9766 15.4642ZM9.97658 15.4642C7.48658 15.4642 5.47658 13.4542 5.47658 10.9642C5.47658 8.47425 7.48658 6.46425 9.97658 6.46425C12.4666 6.46425 14.4766 8.47425 14.4766 10.9642C14.4766 13.4542 12.4666 15.4642 9.97658 15.4642Z" fill="white"/>
</svg>
