<svg width="25" height="26" viewBox="0 0 25 26" fill="none" xmlns="http://www.w3.org/2000/svg">
<path d="M11.7708 20.3976C11.5798 20.2067 11.4798 19.9636 11.4708 19.6685C11.4625 19.3733 11.5538 19.1303 11.7447 18.9393L16.8489 13.8351H5.20829C4.91315 13.8351 4.66558 13.7351 4.46558 13.5351C4.26628 13.3358 4.16663 13.0886 4.16663 12.7935C4.16663 12.4983 4.26628 12.2507 4.46558 12.0507C4.66558 11.8514 4.91315 11.7518 5.20829 11.7518H16.8489L11.7447 6.64762C11.5538 6.45665 11.4625 6.2136 11.4708 5.91846C11.4798 5.62332 11.5798 5.38026 11.7708 5.18929C11.9618 4.99832 12.2048 4.90283 12.5 4.90283C12.7951 4.90283 13.0382 4.99832 13.2291 5.18929L20.1041 12.0643C20.2083 12.1511 20.2822 12.2594 20.326 12.3893C20.3691 12.5198 20.3906 12.6546 20.3906 12.7935C20.3906 12.9323 20.3691 13.0626 20.326 13.1841C20.2822 13.3056 20.2083 13.4185 20.1041 13.5226L13.2291 20.3976C13.0382 20.5886 12.7951 20.6841 12.5 20.6841C12.2048 20.6841 11.9618 20.5886 11.7708 20.3976Z" fill="#00983A"/>
</svg>
