<svg width="26" height="26" viewBox="0 0 26 26" fill="none" xmlns="http://www.w3.org/2000/svg">
<path d="M12.2708 20.3977C12.0798 20.2068 11.9798 19.9637 11.9708 19.6686C11.9625 19.3734 12.0538 19.1304 12.2447 18.9394L17.3489 13.8352H5.70829C5.41315 13.8352 5.16558 13.7352 4.96558 13.5352C4.76628 13.3359 4.66663 13.0887 4.66663 12.7936C4.66663 12.4984 4.76628 12.2509 4.96558 12.0509C5.16558 11.8516 5.41315 11.7519 5.70829 11.7519H17.3489L12.2447 6.64775C12.0538 6.45677 11.9625 6.21372 11.9708 5.91858C11.9798 5.62344 12.0798 5.38038 12.2708 5.18941C12.4618 4.99844 12.7048 4.90295 13 4.90295C13.2951 4.90295 13.5382 4.99844 13.7291 5.18941L20.6041 12.0644C20.7083 12.1512 20.7822 12.2596 20.826 12.3894C20.8691 12.52 20.8906 12.6547 20.8906 12.7936C20.8906 12.9325 20.8691 13.0627 20.826 13.1842C20.7822 13.3057 20.7083 13.4186 20.6041 13.5227L13.7291 20.3977C13.5382 20.5887 13.2951 20.6842 13 20.6842C12.7048 20.6842 12.4618 20.5887 12.2708 20.3977Z" fill="#00983A"/>
</svg>
