<svg width="40" height="41" viewBox="0 0 40 41" fill="none" xmlns="http://www.w3.org/2000/svg">
<g clip-path="url(#clip0_552_4708)">
<path d="M34.375 11.5435H23.125C22.2962 11.5435 21.5013 11.8727 20.9153 12.4587C20.3292 13.0448 20 13.8397 20 14.6685V29.0435L23.125 26.5435H34.375C35.2038 26.5435 35.9987 26.2142 36.5847 25.6282C37.1708 25.0421 37.5 24.2473 37.5 23.4185V14.6685C37.5 13.8397 37.1708 13.0448 36.5847 12.4587C35.9987 11.8727 35.2038 11.5435 34.375 11.5435ZM33.75 20.2935H30V24.0435H27.5V20.2935H23.75V17.7935H27.5V14.0435H30V17.7935H33.75V20.2935Z" fill="#00983A"/>
<path d="M28.75 34.6685C28.75 35.1657 28.5525 35.6427 28.2008 35.9943C27.8492 36.3459 27.3723 36.5435 26.875 36.5435H10.625C10.1277 36.5435 9.65081 36.3459 9.29917 35.9943C8.94754 35.6427 8.75 35.1657 8.75 34.6685V7.79346H12.978L13.244 8.32446C13.5376 8.91751 13.9915 9.41639 14.5543 9.76443C15.1171 10.1125 15.7663 10.2958 16.428 10.2935H21.072C21.7337 10.2958 22.3829 10.1125 22.9457 9.76443C23.5085 9.41639 23.9624 8.91751 24.256 8.32446L24.522 7.79346H28.75V9.66846H31.25V5.91846C31.25 4.75813 30.7891 3.64534 29.9686 2.82486C29.1481 2.00439 28.0353 1.54346 26.875 1.54346H10.625C10.0505 1.54346 9.48156 1.65662 8.95076 1.87648C8.41996 2.09635 7.93766 2.41861 7.53141 2.82486C7.12515 3.23112 6.80289 3.71342 6.58303 4.24422C6.36316 4.77502 6.25 5.34392 6.25 5.91846V34.6685C6.25 35.243 6.36316 35.8119 6.58303 36.3427C6.80289 36.8735 7.12515 37.3558 7.53141 37.7621C7.93766 38.1683 8.41996 38.4906 8.95076 38.7104C9.48156 38.9303 10.0505 39.0435 10.625 39.0435H26.875C27.4495 39.0435 28.0184 38.9303 28.5492 38.7104C29.08 38.4906 29.5623 38.1683 29.9686 37.7621C30.3748 37.3558 30.6971 36.8735 30.917 36.3427C31.1368 35.8119 31.25 35.243 31.25 34.6685V28.4185H28.75V34.6685ZM10.625 4.04346H26.875C27.2624 4.04382 27.6402 4.1642 27.9565 4.38804C28.2727 4.61187 28.5119 4.92818 28.641 5.29346H22.978L22.02 7.20746C21.9326 7.38404 21.7975 7.53257 21.6299 7.63616C21.4623 7.73975 21.269 7.79425 21.072 7.79346H16.428C16.231 7.79425 16.0377 7.73975 15.8701 7.63616C15.7025 7.53257 15.5674 7.38404 15.48 7.20746L14.522 5.29346H8.859C8.98815 4.92818 9.22728 4.61187 9.54351 4.38804C9.85975 4.1642 10.2376 4.04382 10.625 4.04346ZM13.75 31.5435H23.75V34.0435H13.75V31.5435Z" fill="#232263"/>
</g>
<defs>
<clipPath id="clip0_552_4708">
<rect width="40" height="40" fill="white" transform="translate(0 0.293457)"/>
</clipPath>
</defs>
</svg>
