<svg width="20" height="21" viewBox="0 0 20 21" fill="none" xmlns="http://www.w3.org/2000/svg">
<path d="M9.41671 16.3768C9.26393 16.224 9.18393 16.0296 9.17671 15.7935C9.17004 15.5573 9.2431 15.3629 9.39587 15.2101L13.4792 11.1268H4.16671C3.9306 11.1268 3.73254 11.0468 3.57254 10.8868C3.4131 10.7273 3.33337 10.5296 3.33337 10.2935C3.33337 10.0573 3.4131 9.85929 3.57254 9.69929C3.73254 9.53985 3.9306 9.46012 4.16671 9.46012H13.4792L9.39587 5.37679C9.2431 5.22401 9.17004 5.02957 9.17671 4.79346C9.18393 4.55735 9.26393 4.3629 9.41671 4.21012C9.56948 4.05735 9.76393 3.98096 10 3.98096C10.2362 3.98096 10.4306 4.05735 10.5834 4.21012L16.0834 9.71012C16.1667 9.77957 16.2259 9.86624 16.2609 9.97012C16.2953 10.0746 16.3125 10.1823 16.3125 10.2935C16.3125 10.4046 16.2953 10.5087 16.2609 10.606C16.2259 10.7032 16.1667 10.7935 16.0834 10.8768L10.5834 16.3768C10.4306 16.5296 10.2362 16.606 10 16.606C9.76393 16.606 9.56948 16.5296 9.41671 16.3768Z" fill="#00983A"/>
</svg>
