<svg width="40" height="41" viewBox="0 0 40 41" fill="none" xmlns="http://www.w3.org/2000/svg">
<g clip-path="url(#clip0_552_4721)">
<path d="M28.1744 19.4429C27.946 18.9719 27.6263 18.551 27.2338 18.2046C26.8414 17.8583 26.384 17.5934 25.8883 17.4253C25.3925 17.2573 24.8684 17.1895 24.3462 17.2258C23.824 17.2621 23.3143 17.4018 22.8465 17.6368C22.3788 17.8719 21.9625 18.1975 21.6218 18.5948C21.281 18.9922 21.0226 19.4533 20.8616 19.9513C20.7007 20.4494 20.6403 20.9745 20.684 21.4961C20.7277 22.0177 20.8746 22.5254 21.1163 22.9897L28.7163 38.116C29.045 38.7707 29.5494 39.3212 30.173 39.7058C30.7966 40.0905 31.5148 40.2941 32.2475 40.2941C32.8626 40.2939 33.4691 40.1494 34.0181 39.8722C34.4822 39.6399 34.896 39.3184 35.2357 38.9261C35.5755 38.5338 35.8346 38.0784 35.9983 37.5859C36.162 37.0934 36.227 36.5735 36.1897 36.0558C36.1523 35.5382 36.0133 35.033 35.7806 34.5691L28.1744 19.4429ZM27.2 31.9585L25.155 27.8804L29.6863 25.6066L31.7344 29.6847L27.2 31.9585Z" fill="#00983A"/>
<path d="M23.75 32.4072L26.25 37.3822V37.7935C26.25 38.4565 25.9866 39.0924 25.5178 39.5612C25.049 40.0301 24.4131 40.2935 23.75 40.2935H6.25003C5.58699 40.2935 4.9511 40.0301 4.48226 39.5612C4.01342 39.0924 3.75003 38.4565 3.75003 37.7935V15.901C3.74714 14.7514 3.97211 13.6128 4.41195 12.5507C4.85178 11.4887 5.49776 10.5243 6.31253 9.71346L10 6.02596V2.79346C10 2.13042 10.2634 1.49453 10.7323 1.02569C11.2011 0.556849 11.837 0.293457 12.5 0.293457L17.5 0.293457C18.1631 0.293457 18.799 0.556849 19.2678 1.02569C19.7366 1.49453 20 2.13042 20 2.79346V6.02596L23.6875 9.71346C25.2638 11.2777 26.1808 13.3864 26.25 15.606C25.7293 15.4595 25.1909 15.3852 24.65 15.3853C24.3454 15.3862 24.0413 15.4112 23.7407 15.4603C23.6402 13.9558 22.9952 12.5394 21.9263 11.476L17.5 7.06221V2.79346H12.5V7.06221L8.08128 11.481C7.49886 12.06 7.03711 12.7488 6.72276 13.5075C6.40842 14.2662 6.24774 15.0797 6.25003 15.901V37.7935H23.75V32.4072ZM20 27.7935H15.625V23.4185H13.125V27.7935H8.75003V30.2935H13.125V34.6685H15.625V30.2935H20V27.7935Z" fill="#232263"/>
</g>
<defs>
<clipPath id="clip0_552_4721">
<rect width="40" height="40" fill="white" transform="translate(0 0.293457)"/>
</clipPath>
</defs>
</svg>
