<svg width="26" height="26" viewBox="0 0 26 26" fill="none" xmlns="http://www.w3.org/2000/svg">
<path d="M12.2708 20.3854C12.0798 20.1944 11.9798 19.9514 11.9708 19.6563C11.9625 19.3611 12.0538 19.1181 12.2447 18.9271L17.3489 13.8229H5.70829C5.41315 13.8229 5.16558 13.7229 4.96558 13.5229C4.76628 13.3236 4.66663 13.0764 4.66663 12.7813C4.66663 12.4861 4.76628 12.2385 4.96558 12.0385C5.16558 11.8392 5.41315 11.7396 5.70829 11.7396H17.3489L12.2447 6.63542C12.0538 6.44444 11.9625 6.20139 11.9708 5.90625C11.9798 5.61111 12.0798 5.36806 12.2708 5.17708C12.4618 4.98611 12.7048 4.89062 13 4.89062C13.2951 4.89062 13.5382 4.98611 13.7291 5.17708L20.6041 12.0521C20.7083 12.1389 20.7822 12.2472 20.826 12.3771C20.8691 12.5076 20.8906 12.6424 20.8906 12.7813C20.8906 12.9201 20.8691 13.0503 20.826 13.1719C20.7822 13.2934 20.7083 13.4063 20.6041 13.5104L13.7291 20.3854C13.5382 20.5764 13.2951 20.6719 13 20.6719C12.7048 20.6719 12.4618 20.5764 12.2708 20.3854Z" fill="#00983A"/>
</svg>
