<svg width="25" height="26" viewBox="0 0 25 26" fill="none" xmlns="http://www.w3.org/2000/svg">
<path d="M11.7708 20.3854C11.5798 20.1944 11.4798 19.9514 11.4708 19.6563C11.4625 19.3611 11.5538 19.1181 11.7447 18.9271L16.8489 13.8229H5.20829C4.91315 13.8229 4.66558 13.7229 4.46558 13.5229C4.26628 13.3236 4.16663 13.0764 4.16663 12.7813C4.16663 12.4861 4.26628 12.2385 4.46558 12.0385C4.66558 11.8392 4.91315 11.7396 5.20829 11.7396H16.8489L11.7447 6.63542C11.5538 6.44444 11.4625 6.20139 11.4708 5.90625C11.4798 5.61111 11.5798 5.36806 11.7708 5.17708C11.9618 4.98611 12.2048 4.89062 12.5 4.89062C12.7951 4.89062 13.0382 4.98611 13.2291 5.17708L20.1041 12.0521C20.2083 12.1389 20.2822 12.2472 20.326 12.3771C20.3691 12.5076 20.3906 12.6424 20.3906 12.7813C20.3906 12.9201 20.3691 13.0503 20.326 13.1719C20.2822 13.2934 20.2083 13.4063 20.1041 13.5104L13.2291 20.3854C13.0382 20.5764 12.7951 20.6719 12.5 20.6719C12.2048 20.6719 11.9618 20.5764 11.7708 20.3854Z" fill="#00983A"/>
</svg>
