<svg width="17" height="17" viewBox="0 0 17 17" fill="none" xmlns="http://www.w3.org/2000/svg">
<path d="M1.58047 10.105L7.58027 15.8844C7.8293 16.1242 8.15801 16.2578 8.5 16.2578C8.84199 16.2578 9.1707 16.1242 9.41973 15.8844L15.4195 10.105C16.4289 9.1355 17 7.77544 17 6.35372V6.15502C17 3.76036 15.3232 1.71856 13.0355 1.32459C11.5215 1.06422 9.98086 1.57467 8.89844 2.69149L8.5 3.1026L8.10156 2.69149C7.01914 1.57467 5.47852 1.06422 3.96445 1.32459C1.67676 1.71856 0 3.76036 0 6.15502V6.35372C0 7.77544 0.571094 9.1355 1.58047 10.105Z" fill="#00983A"/>
</svg>
